# xmcd
#
# Track frame offsets:
#	180
#	15495
#	31173
#	42428
#	62741
#	78724
#	90643
#	108126
#	121468
#	135876
#	152962
#	167657
#	179734
#	194944
#	211009
#
# Disc length: 3038 seconds
#
# Revision: 0
# Processed by: cddbd v1.5.1PL0 Copyright (c) Steve Scherf et al.
# Submitted via: audiograbber 1.83.01
#
DISCID=c90bdc0f
DTITLE=Sound Choice: Country Hits - SC-8102
DYEAR=1900
DGENRE=Country Karaoke
TTITLE0=Joe Diffie - Prop Me Up Beside The Jukebox
TTITLE1=Billy Ray Cyrus - Achy Breaky Heart
TTITLE2=George Jones - High-Tech Redneck
TTITLE3=John Michael Mongomery - I Swear
TTITLE4=Tanya Tucker - Soon
TTITLE5=Martina McBride - My Baby Loves Me
TTITLE6=Ray Price - For The Good Times
TTITLE7=Lorrie Morgan - Except For Monday
TTITLE8=Travis Tritt - Country Club
TTITLE9=Alabama - TLC ASAP
TTITLE10=Mary Chapin-Carpenter - I Feel Lucky
TTITLE11=Patsy Cline - Sweet Dreams
TTITLE12=McBride and The Ride - Sacred Ground
TTITLE13=Travis Tritt - Forever and Ever Amen
TTITLE14=Alan Jackson - Here In The Real World
EXTD=
EXTT0=
EXTT1=
EXTT2=
EXTT3=
EXTT4=
EXTT5=
EXTT6=
EXTT7=
EXTT8=
EXTT9=
EXTT10=
EXTT11=
EXTT12=
EXTT13=
EXTT14=
PLAYORDER=
